#!OML:ASF E:\emotionWalksFemale\Project 1\Capture day 1\Session 1\Female1.ASF
:FULLY-SPECIFIED
:DEGREES
893
root 8.87909 15.6606 5.94721 175.589 4.67461 -180.877
lowerback 8.25728 0.132497 0.677162
upperback -5.6612 0.440716 0.213519
thorax -10.7125 0.234977 -0.239822
lowerneck -4.1304 -0.219937 -4.39137
upperneck 6.95858 -0.263852 5.10403
head 3.00178 -0.0279941 2.44962
rclavicle -4.96962e-017 2.38542e-015
rhumerus -39.2466 9.40562 -91.1313
rradius 42.3505
rwrist 11.638
rhand -1.09014 -47.4486
rfingers 7.12502
rthumb 24.5458 -75.8953
lclavicle -4.96962e-017 2.38542e-015
lhumerus -38.0045 -6.12651 88.2588
lradius 40.6502
lwrist -11.8449
lhand -10.6117 -33.5967
lfingers 7.12502
lthumb 15.3946 -4.18989
rfemur -15.9907 -7.23771 18.6481
rtibia 63.2256
rfoot -14.375 -14.2935
rtoes -11.5992
lfemur 3.89421 -18.9962 -33.4417
ltibia 14.1237
lfoot -17.5123 20.7987
ltoes -9.68912
894
root 8.88012 15.6472 5.89086 175.58 4.67226 -181.087
lowerback 8.21245 0.111684 0.381305
upperback -5.62474 0.366575 0.172442
thorax -10.6462 0.218321 -0.104182
lowerneck -4.13733 -0.187519 -4.31345
upperneck 6.90505 -0.222713 5.05647
head 2.98124 -0.00802432 2.41965
rclavicle 3.42904e-015 -6.55989e-015
rhumerus -39.3655 9.29849 -91.1366
rradius 42.3199
rwrist 11.6654
rhand -1.19525 -47.424
rfingers 7.12502
rthumb 24.445 -75.8843
lclavicle 3.42904e-015 -6.55989e-015
lhumerus -37.9712 -6.26503 88.4074
lradius 40.7287
lwrist -11.6557
lhand -10.4593 -33.6176
lfingers 7.12502
lthumb 15.5413 -4.22212
rfemur -16.9817 -6.87236 18.7137
rtibia 62.7984
rfoot -15.1994 -15.26
rtoes -12.4359
lfemur 4.02938 -18.8852 -33.7918
ltibia 14.3128
lfoot -17.6597 20.8378
ltoes -9.63919
895
root 8.88247 15.635 5.83553 175.63 4.58436 -181.217
lowerback 8.1041 0.0753781 0.177738
upperback -5.6096 0.284385 0.10693
thorax -10.5647 0.190919 -0.0453834
lowerneck -4.11002 -0.164289 -4.23646
upperneck 6.92188 -0.198869 5.10185
head 2.98024 0.0083533 2.42174
rclavicle -3.62782e-015 -1.98785e-015
rhumerus -39.5192 9.15043 -91.1551
rradius 42.3278
rwrist 11.4772
rhand -0.992023 -47.8566
rfingers 7.12502
rthumb 24.6399 -76.2905
lclavicle -3.62782e-015 -1.98785e-015
lhumerus -37.9672 -6.54829 88.5449
lradius 40.7824
lwrist -11.619
lhand -10.723 -33.645
lfingers 7.12502
lthumb 15.2873 -4.22996
rfemur -17.9622 -6.43328 18.8903
rtibia 62.2421
rfoot -15.3514 -16.342
rtoes -11.9772
lfemur 4.09988 -18.6768 -34.0383
ltibia 14.5217
lfoot -17.2886 20.9974
ltoes -12.1043
896
root 8.88797 15.6251 5.78357 175.603 4.24113 -181.157
lowerback 8.0446 -0.0408686 0.154632
upperback -5.53896 0.118007 0.0883045
thorax -10.4503 0.109901 -0.0233641
lowerneck -3.85583 -0.175705 -4.31648
upperneck 6.68027 -0.223151 5.28708
head 2.85428 -0.00316458 2.49194
rclavicle -2.98177e-016 -9.93923e-016
rhumerus -39.6453 8.96978 -91.0978
rradius 42.212
rwrist 11.4165
rhand -0.770521 -47.9235
rfingers 7.12502
rthumb 24.8521 -76.3283
lclavicle -2.98177e-016 -9.93923e-016
lhumerus -37.9019 -6.87439 88.7305
lradius 40.8528
lwrist -11.5259
lhand -10.7107 -33.6364
lfingers 7.12502
lthumb 15.2992 -4.22232
rfemur -18.6986 -6.09253 19.2483
rtibia 61.5271
rfoot -15.504 -17.184
rtoes -9.12747
lfemur 4.20484 -18.6075 -34.0887
ltibia 14.8172
lfoot -16.9637 20.9254
ltoes -13.3891
897
root 8.89234 15.6168 5.7352 175.559 3.94775 -180.923
lowerback 8.15934 -0.154685 0.299988
upperback -5.51626 -0.0138965 0.146851
thorax -10.4943 0.0371259 -0.0196914
lowerneck -3.6113 -0.183174 -4.46347
upperneck 6.48256 -0.239689 5.50947
head 2.74636 -0.0109641 2.58857
rclavicle -5.96354e-016 -2.5842e-015
rhumerus -39.8677 8.84 -90.9825
rradius 42.0161
rwrist 11.487
rhand -0.456565 -47.9107
rfingers 7.12502
rthumb 25.153 -76.2736
lclavicle -5.96354e-016 -2.5842e-015
lhumerus -37.9263 -7.12209 88.965
lradius 40.8523
lwrist -11.4633
lhand -10.6056 -33.6914
lfingers 7.12502
lthumb 15.4004 -4.28498
rfemur -19.3796 -5.63772 19.802
rtibia 60.6581
rfoot -15.9202 -17.8639
rtoes -8.62978
lfemur 4.25907 -18.7165 -33.9575
ltibia 15.2479
lfoot -17.4012 20.7094
ltoes -11.3851
898
root 8.89618 15.6107 5.68383 175.587 3.81613 -180.739
lowerback 8.24107 -0.189061 0.364639
upperback -5.52827 -0.0450208 0.211058
thorax -10.557 0.0203094 0.018255
lowerneck -3.81268 -0.229349 -4.44706
upperneck 6.72004 -0.299536 5.51345
head 2.86797 -0.0351514 2.59107
rclavicle -7.50412e-015 -1.59028e-015
rhumerus -40.0721 8.68502 -90.7934
rradius 41.7977
rwrist 11.5332
rhand -0.316309 -48.1597
rfingers 7.12502
rthumb 25.2874 -76.5036
lclavicle -7.50412e-015 -1.59028e-015
lhumerus -38.1421 -7.53418 89.2898
lradius 40.9738
lwrist -11.375
lhand -10.6666 -33.6736
lfingers 7.12502
lthumb 15.3417 -4.26276
rfemur -20.1248 -4.99829 20.2995
rtibia 59.6699
rfoot -16.6367 -18.4889
rtoes -11.6339
lfemur 4.23268 -18.7168 -33.8485
ltibia 15.7043
lfoot -17.9528 20.5124
ltoes -9.7162
899
root 8.90187 15.6003 5.62708 175.621 3.76478 -180.696
lowerback 8.21026 -0.207958 0.226728
upperback -5.50599 -0.0830485 0.278991
thorax -10.5132 0.0146071 0.175229
lowerneck -4.01379 -0.297396 -4.36445
upperneck 6.87546 -0.383333 5.3342
head 2.96051 -0.0783204 2.5162
rclavicle -8.29926e-015 -5.96354e-015
rhumerus -40.14 8.5609 -90.5814
rradius 41.3366
rwrist 11.7444
rhand -0.55153 -48.215
rfingers 7.12502
rthumb 25.062 -76.5906
lclavicle -8.29926e-015 -5.96354e-015
lhumerus -38.35 -7.85544 89.6205
lradius 41.2072
lwrist -11.32
lhand -10.4478 -33.5756
lfingers 7.12502
lthumb 15.5524 -4.18101
rfemur -20.8406 -4.32304 20.6009
rtibia 58.6048
rfoot -17.3042 -19.0973
rtoes -13.2556
lfemur 4.31796 -18.6141 -33.91
ltibia 15.9753
lfoot -17.9521 20.6643
ltoes -11.0818
900
root 8.90649 15.5898 5.57148 175.579 3.60893 -180.702
lowerback 8.27128 -0.296091 0.0573853
upperback -5.50533 -0.216909 0.355792
thorax -10.5478 -0.0344632 0.376173
lowerneck -3.70567 -0.284205 -4.47609
upperneck 6.63748 -0.36329 5.30687
head 2.82125 -0.0780986 2.52122
rclavicle 3.08116e-015 7.55382e-015
rhumerus -40.2199 8.43922 -90.3572
rradius 40.6953
rwrist 11.9853
rhand -0.707091 -47.8383
rfingers 7.12502
rthumb 24.9129 -76.2346
lclavicle 3.08116e-015 7.55382e-015
lhumerus -38.5211 -7.82909 89.9083
lradius 41.2718
lwrist -11.5786
lhand -10.3622 -33.7075
lfingers 7.12502
lthumb 15.6349 -4.31933
rfemur -21.417 -3.80346 20.7951
rtibia 57.4601
rfoot -17.5024 -19.6476
rtoes -13.3095
lfemur 4.61924 -18.7164 -34.0897
ltibia 16.0162
lfoot -17.763 20.9376
ltoes -12.3911
901
root 8.90991 15.5865 5.51723 175.541 3.31204 -180.768
lowerback 8.35071 -0.410781 -0.0705344
upperback -5.53617 -0.388001 0.345828
thorax -10.628 -0.107313 0.467588
lowerneck -3.52404 -0.265045 -4.59756
upperneck 6.63071 -0.338268 5.3889
head 2.78569 -0.066875 2.57073
rclavicle 1.44119e-015 2.98177e-015
rhumerus -40.4109 8.17328 -90.1157
rradius 40.1712
rwrist 12.2428
rhand -0.620576 -47.7826
rfingers 7.12502
rthumb 24.9958 -76.1674
lclavicle 1.44119e-015 2.98177e-015
lhumerus -38.6868 -7.97369 90.1784
lradius 41.2262
lwrist -11.7389
lhand -10.5442 -33.8867
lfingers 7.12502
lthumb 15.4595 -4.48486
rfemur -21.9226 -3.33185 20.8899
rtibia 56.2369
rfoot -17.4924 -20.2009
rtoes -13.2611
lfemur 4.96412 -18.9783 -34.332
ltibia 15.941
lfoot -17.646 21.07
ltoes -12.2229
902
root 8.91377 15.585 5.46441 175.567 3.10552 -180.799
lowerback 8.40961 -0.453921 -0.122927
upperback -5.58973 -0.457165 0.272909
thorax -10.7228 -0.138422 0.431285
lowerneck -3.53787 -0.38427 -4.46259
upperneck 6.78477 -0.499585 5.30032
head 2.84705 -0.143614 2.5127
rclavicle -4.57205e-015 -9.93923e-016
rhumerus -40.6533 7.70863 -89.8686
rradius 39.7359
rwrist 12.5467
rhand -0.159301 -48.7171
rfingers 7.12502
rthumb 25.4378 -77.0397
lclavicle -4.57205e-015 -9.93923e-016
lhumerus -38.9257 -8.47237 90.4475
lradius 41.2911
lwrist -11.5937
lhand -10.5205 -33.9491
lfingers 7.12502
lthumb 15.4824 -4.54902
rfemur -22.4485 -2.72245 21.0244
rtibia 54.9229
rfoot -17.3744 -20.7194
rtoes -13.294
lfemur 5.29856 -19.2297 -34.4964
ltibia 15.7192
lfoot -17.7104 21.1548
ltoes -11.6347
903
root 8.91865 15.5786 5.41217 175.519 3.02565 -180.747
lowerback 8.45263 -0.450595 -0.17442
upperback -5.51687 -0.46451 0.283516
thorax -10.6666 -0.140452 0.473331
lowerneck -3.49897 -0.487877 -4.45047
upperneck 6.62637 -0.640074 5.30258
head 2.79392 -0.215613 2.50357
rclavicle 8.00108e-015 7.55382e-015
rhumerus -40.7034 7.34905 -89.5536
rradius 39.2814
rwrist 12.5001
rhand 0.144329 -49.4521
rfingers 7.12502
rthumb 25.7286 -77.7329
lclavicle 8.00108e-015 7.55382e-015
lhumerus -39.0511 -8.86097 90.7633
lradius 41.3264
lwrist -11.569
lhand -10.4804 -33.9428
lfingers 7.12502
lthumb 15.521 -4.54578
rfemur -22.8534 -2.04779 21.2355
rtibia 53.5351
rfoot -17.7148 -20.8073
rtoes -13.1863
lfemur 5.76302 -19.3408 -34.5718
ltibia 15.3844
lfoot -17.8692 21.1292
ltoes -11.0217
